<?xml version="1.0" standalone="no"?>
<!DOCTYPE svg PUBLIC "-//W3C//DTD SVG 20010904//EN"
 "http://www.w3.org/TR/2001/REC-SVG-20010904/DTD/svg10.dtd">
<svg version="1.0" xmlns="http://www.w3.org/2000/svg"
 width="159.000000pt" height="159.000000pt" viewBox="0 0 159.000000 159.000000"
 preserveAspectRatio="xMidYMid meet">
<metadata>
Created by potrace 1.16, written by Peter Selinger 2001-2019
</metadata>
<g transform="translate(0.000000,159.000000) scale(0.100000,-0.100000)"
fill="#000000" stroke="none">
<path d="M730 1481 c-100 -33 -187 -123 -219 -227 -17 -54 -19 -56 -77 -80
-35 -14 -73 -39 -94 -61 -34 -37 -37 -45 -124 -441 -83 -371 -88 -404 -73
-419 24 -24 186 -46 212 -29 15 10 32 61 72 222 l52 209 -6 -236 c-6 -232 -5
-237 16 -258 20 -20 28 -21 299 -21 235 0 281 2 300 16 22 15 22 19 23 242 l1
227 34 -135 c59 -237 66 -260 84 -270 22 -12 200 15 211 32 5 7 9 22 9 32 0
49 -174 793 -192 818 -16 23 -104 73 -160 92 -12 4 -18 16 -18 38 0 69 -89
182 -181 228 -46 24 -130 34 -169 21z m142 -111 c15 0 89 -74 104 -101 20 -39
18 -85 -3 -94 -59 -24 -349 -13 -376 14 -36 36 76 172 154 188 24 5 60 6 79 1
19 -4 38 -8 42 -8z m-234 -226 c37 -6 42 -10 42 -33 0 -15 11 -42 25 -61 17
-22 25 -47 25 -73 0 -54 24 -44 28 12 3 33 -2 50 -22 76 -36 47 -26 65 34 65
68 0 83 -17 74 -87 -5 -44 -3 -57 11 -73 20 -22 55 -27 55 -9 0 7 -8 17 -17
24 -13 10 -17 28 -18 78 l0 65 83 12 c73 12 89 11 136 -3 57 -18 114 -52 128
-77 14 -25 176 -764 169 -772 -3 -3 -35 -9 -71 -13 l-65 -7 -78 323 c-43 178
-82 328 -87 333 -5 5 -16 6 -26 2 -15 -6 -16 -36 -13 -369 l4 -362 -265 0
-265 0 0 365 c0 352 -1 365 -19 365 -17 0 -29 -40 -98 -324 -43 -179 -80 -326
-82 -329 -3 -2 -34 -1 -70 3 -48 5 -66 11 -66 22 0 13 154 714 166 755 3 10
19 27 35 39 41 29 159 70 184 64 11 -3 39 -8 63 -11z"/>
<path d="M627 553 c-3 -5 -8 -35 -12 -68 -3 -33 -18 -93 -31 -134 -14 -41 -23
-80 -20 -88 4 -10 52 -13 236 -13 262 0 248 -6 211 88 -16 40 -41 171 -41 213
0 11 -337 13 -343 2z m322 -98 c6 -41 19 -97 30 -125 l19 -50 -203 0 -204 0
20 45 c11 24 25 81 31 125 l12 80 142 0 142 0 11 -75z"/>
</g>
</svg>
